# xmcd CD database file
#
# Track frame offsets:
#	187
#	20920
#	44987
#	68662
#	88917
#	114720
#	142505
#	163487
#	184280
#	208720
#	233612
#	253317
#	278247
#	305632
#
# Disc length: 4407 seconds
#
# Revision: 3
# Processed by: cddbd v1.5PL3 Copyright (c) Steve Scherf et al.
# Submitted via: CDex 1.50Beta7
#
DISCID=db11350e
DTITLE=近藤房之助 - HEART OF STONE
DYEAR=1900
DGENRE=Blues
TTITLE0=NO MAN IS AN ISLAND
TTITLE1=WHEN SOMETHING IS WRONG WITH MY BABY
TTITLE2=NO NO BOY
TTITLE3=HEART OF STONE
TTITLE4=JEALOUS GUY
TTITLE5=DON'T LET ME BE LONELY TONIGHT
TTITLE6=青い影
TTITLE7=COME SEE ABOUT ME
TTITLE8=SWEET LITTLE ANGEL
TTITLE9=DON'T LET ME DOWN
TTITLE10=DROWN IN MY OWN TEARS
TTITLE11=CIGARETTES and COFFEE
TTITLE12=LET ME LOVE YOU, BABY
TTITLE13=CISCO KID
EXTD=
EXTT0=
EXTT1=
EXTT2=
EXTT3=
EXTT4=
EXTT5=
EXTT6=
EXTT7=
EXTT8=
EXTT9=
EXTT10=
EXTT11=
EXTT12=
EXTT13=
PLAYORDER=
